<svg xmlns="http://www.w3.org/2000/svg" viewBox="0 0 999 983" width="999" height="983">
  <rect width="100%" height="100%" fill="none"/>
  <circle cx="510.81" cy="481.32" r="385.91" fill="#205942"/>
  <path d="M 458 452 L 464 462 L 466 462 L 465 457 Z M 361 342 L 360 349 L 418 493 L 401 511 L 399 522 L 402 532 L 411 540 L 426 541 L 434 538 L 437 541 L 478 645 L 484 655 L 539 655 L 587 538 L 591 536 L 599 540 L 609 539 L 619 527 L 619 515 L 604 496 L 604 491 L 659 355 L 661 343 L 657 340 L 619 341 L 603 375 L 586 375 L 563 390 L 552 400 L 550 405 L 546 405 L 545 402 L 563 376 L 574 355 L 576 348 L 574 327 L 559 315 L 549 314 L 537 318 L 527 330 L 518 355 L 513 382 L 510 385 L 508 383 L 506 349 L 498 322 L 493 314 L 485 309 L 474 308 L 467 310 L 458 317 L 453 327 L 452 346 L 456 362 L 476 408 L 474 411 L 442 387 L 419 378 L 402 341 L 365 340 Z M 478 523 L 491 527 L 498 538 L 501 552 L 501 581 L 498 580 L 477 527 Z M 546 520 L 548 525 L 526 585 L 522 588 L 521 548 L 524 534 L 533 524 Z M 402 518 L 406 508 L 415 499 L 441 487 L 452 485 L 480 487 L 492 492 L 507 504 L 503 510 L 505 512 L 519 498 L 536 489 L 550 485 L 570 485 L 586 489 L 603 499 L 615 512 L 617 524 L 614 531 L 605 537 L 597 536 L 561 518 L 540 518 L 528 524 L 519 542 L 518 605 L 515 611 L 512 612 L 504 597 L 504 561 L 501 539 L 493 525 L 481 519 L 464 519 L 429 537 L 414 538 L 409 536 L 404 530 Z M 506 448 L 511 448 L 515 454 L 524 490 L 518 498 L 508 501 L 496 490 L 499 459 L 501 453 Z M 472 439 L 478 439 L 481 442 L 481 448 L 477 452 L 473 452 L 468 447 L 468 443 Z M 547 433 L 548 443 L 544 447 L 538 447 L 535 443 L 535 437 L 539 433 Z M 581 432 L 583 436 L 566 479 L 563 482 L 543 484 L 541 479 L 546 463 L 567 440 Z M 468 313 L 484 312 L 491 317 L 496 326 L 504 359 L 508 420 L 511 420 L 514 386 L 529 332 L 539 320 L 546 317 L 559 318 L 566 322 L 573 333 L 574 346 L 558 380 L 531 419 L 527 428 L 530 428 L 550 405 L 566 391 L 587 378 L 602 378 L 611 388 L 612 397 L 603 412 L 596 419 L 564 440 L 547 457 L 540 471 L 538 485 L 530 489 L 527 486 L 527 470 L 532 456 L 538 450 L 545 450 L 550 445 L 552 436 L 545 429 L 541 429 L 534 434 L 532 438 L 534 449 L 524 469 L 514 447 L 507 445 L 500 450 L 494 475 L 491 473 L 483 452 L 483 439 L 474 435 L 466 440 L 465 446 L 467 451 L 472 455 L 480 454 L 486 462 L 491 485 L 489 488 L 479 485 L 472 472 L 470 472 L 472 481 L 470 483 L 461 483 L 446 449 L 448 445 L 450 447 L 452 445 L 411 425 L 396 407 L 397 393 L 404 384 L 412 381 L 426 382 L 461 403 L 489 431 L 467 383 L 455 347 L 456 327 Z" fill="#ffffff" fill-rule="evenodd"/>
</svg>